<svg id="Camada_1" data-name="Camada 1" xmlns="http://www.w3.org/2000/svg" viewBox="0 0 15.32 23.03"><defs><style>.cls-1{fill:#34cb79;}</style></defs><path class="cls-1" d="M11.23,23.51V20.84c-.49,0-1-.06-1.42-.07a8.94,8.94,0,0,1-4.15-1,1.74,1.74,0,0,1-1.13-1.51c0-.75.55-1,1.12-1.3l2.78-1.3a4.72,4.72,0,0,0,3,2.44c0-1.61,0-3.17,0-4.72,0-.18-.33-.45-.56-.51-1.14-.35-2.31-.61-3.45-1-1.72-.51-2.77-1.83-2.34-3.26A5.55,5.55,0,0,1,6.68,6.1a20.52,20.52,0,0,1,3.8-2.29c.53-.28.69-.53.56-1.09S10.8,1.38,10.68.67L13.4.49c-.05.63-.07,1.23-.15,1.82s.09.59.55.61A23.63,23.63,0,0,1,17,3.2,3.8,3.8,0,0,1,18.49,4c.66.5.67,1,0,1.47a20,20,0,0,1-2.8,1.33c-.17.07-.51-.15-.73-.3-.48-.34-.93-.72-1.4-1.08l-.31.13c0,1.28,0,2.57,0,3.85,0,.22.36.52.61.6,1,.35,2.09.58,3.11,1a6.13,6.13,0,0,1,1.94,1,2.73,2.73,0,0,1,.3,3.85,13.35,13.35,0,0,1-5.12,4,1,1,0,0,0-.63,1.1c.06.71.08,1.43.12,2.22Zm2-5.47.21.19A8.86,8.86,0,0,0,15,17.32a1.64,1.64,0,0,0,.56-1.92,3.31,3.31,0,0,0-2.29-1.73Zm-2-9v-4a2,2,0,0,0-2,1.74C9.12,7.86,9.83,8.68,11.25,9.08Z" transform="translate(-4.53 -0.49)"/></svg>