<?xml version="1.0" encoding="utf-8"?>
<!-- Generator: Adobe Illustrator 24.0.3, SVG Export Plug-In . SVG Version: 6.00 Build 0)  -->
<svg version="1.1" id="Camada_1" xmlns="http://www.w3.org/2000/svg" xmlns:xlink="http://www.w3.org/1999/xlink" x="0px" y="0px"
	 width="24" height="24" viewBox="0 0 24 24" style="enable-background:new 0 0 24 24;" xml:space="preserve">
<style type="text/css">
	.st0{fill:#34CB79;}
</style>
<g>
	<path class="st0" d="M9.57,9.33c0.02,0.01,0.04,0.02,0.06,0.03c-0.08,0.26-0.17,0.52-0.25,0.79c-0.46,1.39-0.91,2.78-1.14,4.24
		c-0.14,0.86,0.13,1.52,0.78,2.06c0.58,0.48,1.27,0.68,1.99,0.79c1.56,0.23,3.12,0.22,4.68,0.05c0.74-0.08,1.47-0.25,2.09-0.69
		c0.61-0.44,1.07-0.99,1-1.8c-0.04-0.49-0.11-0.98-0.24-1.45c-0.35-1.25-0.74-2.5-1.11-3.75c-0.03-0.09-0.06-0.19-0.08-0.28
		c0.8,1.64,1.42,3.33,1.86,5.09c0.33-0.08,0.55-0.33,0.65-0.81c0.33-1.63,0.11-3.15-0.95-4.48C18.17,8.18,17.22,7.53,16.17,7
		c-0.14-0.07-0.28-0.13-0.43-0.21c1.73-1.51,1.64-3.84,0.36-5.2c-1.31-1.4-3.47-1.51-4.94-0.27C9.87,2.4,9.2,4.99,11.23,6.79
		c-0.12,0.06-0.24,0.12-0.36,0.18c-0.5,0.3-1.02,0.56-1.49,0.9c-1.32,0.97-2.23,2.21-2.37,3.9c-0.05,0.68-0.05,1.36,0.18,2.01
		c0.1,0.28,0.25,0.53,0.58,0.64C8.22,12.67,8.84,10.98,9.57,9.33z M5.81,7.08C6.9,5.82,6.94,4.52,5.96,3.55
		C5.05,2.67,3.64,2.65,2.71,3.5c-1.03,0.94-1,2.23,0.09,3.57C2.71,7.12,2.62,7.17,2.54,7.21C1.84,7.57,1.2,8,0.71,8.63
		c-0.69,0.87-0.83,1.86-0.62,2.91c0.05,0.24,0.13,0.48,0.39,0.56c0.38-1.08,0.75-2.14,1.12-3.2c0.03,0.01,0.06,0.02,0.09,0.03
		c-0.03,0.1-0.06,0.2-0.09,0.3c-0.23,0.82-0.48,1.64-0.7,2.47c-0.2,0.75-0.13,1.43,0.6,1.88c0.25,0.15,0.53,0.27,0.81,0.34
		c1.06,0.25,2.15,0.21,3.23,0.13c0.33-0.03,0.66-0.11,1-0.16c-0.03-0.12-0.04-0.19-0.06-0.26c-0.23-1.25-0.18-2.48,0.36-3.65
		c0.18-0.38,0.26-0.72,0.06-1.1C6.89,8.86,6.91,8.84,6.92,8.8C7,8.97,7.07,9.12,7.16,9.29C7.37,9,7.57,8.74,7.77,8.47
		C7.22,7.84,6.55,7.42,5.81,7.08z"/>
	<path class="st0" d="M9.57,9.33c-0.73,1.65-1.35,3.33-1.79,5.1c-0.33-0.1-0.48-0.35-0.58-0.64c-0.23-0.66-0.24-1.33-0.18-2.01
		c0.14-1.69,1.05-2.93,2.37-3.9c0.47-0.34,0.99-0.6,1.49-0.9c0.11-0.07,0.23-0.12,0.36-0.18C9.2,4.99,9.87,2.4,11.16,1.32
		c1.48-1.24,3.64-1.13,4.94,0.27c1.27,1.37,1.37,3.69-0.36,5.2c0.15,0.07,0.29,0.14,0.43,0.21c1.05,0.53,2,1.18,2.74,2.11
		c1.07,1.34,1.28,2.86,0.95,4.48c-0.1,0.48-0.33,0.73-0.65,0.81c-0.44-1.76-1.06-3.46-1.86-5.09c0.03,0.09,0.06,0.19,0.08,0.28
		c0.37,1.25,0.76,2.49,1.11,3.75c0.13,0.47,0.2,0.96,0.24,1.45c0.07,0.81-0.39,1.37-1,1.8c-0.62,0.44-1.35,0.61-2.09,0.69
		c-1.56,0.17-3.12,0.18-4.68-0.05c-0.72-0.11-1.42-0.31-1.99-0.79c-0.64-0.54-0.91-1.2-0.78-2.06c0.23-1.46,0.67-2.85,1.14-4.24
		c0.09-0.26,0.17-0.52,0.25-0.79C9.61,9.35,9.59,9.34,9.57,9.33z"/>
	<path class="st0" d="M5.81,7.08c0.75,0.34,1.41,0.76,1.96,1.39C7.57,8.74,7.37,9,7.16,9.29C7.07,9.12,7,8.97,6.92,8.8
		C6.91,8.84,6.89,8.86,6.9,8.87c0.2,0.38,0.11,0.72-0.06,1.1c-0.54,1.17-0.59,2.4-0.36,3.65c0.01,0.07,0.03,0.14,0.06,0.26
		c-0.34,0.06-0.67,0.14-1,0.16c-1.08,0.08-2.16,0.12-3.23-0.13c-0.28-0.07-0.56-0.19-0.81-0.34c-0.73-0.45-0.8-1.13-0.6-1.88
		c0.22-0.83,0.47-1.65,0.7-2.47c0.03-0.1,0.06-0.2,0.09-0.3C1.66,8.92,1.63,8.91,1.6,8.9c-0.37,1.06-0.75,2.12-1.12,3.2
		c-0.26-0.08-0.34-0.32-0.39-0.56c-0.2-1.06-0.06-2.04,0.62-2.91C1.2,8,1.84,7.57,2.54,7.21c0.08-0.04,0.17-0.09,0.26-0.13
		C1.7,5.73,1.68,4.45,2.71,3.5c0.94-0.86,2.35-0.84,3.25,0.05C6.94,4.52,6.9,5.82,5.81,7.08z"/>
</g>
</svg>
